{"title":"Conspiracy.2001.720p.BRRip.x264.Hun.Eng","uid":10079474,"size":3246096555,"categoryP":"video","categoryS":"hd___movies","magnet":"?xt=urn:btih:38848880d142fdefe3478d524df252baf6907863&amp;dn=Conspiracy.2001.720p.BRRip.x264.Hun.Eng&amp;tr=udp%3A%2F%2Ftracker.openbittorrent.com%3A80&amp;tr=udp%3A%2F%2Fopen.demonii.com%3A1337&amp;tr=udp%3A%2F%2Ftracker.coppersurfer.tk%3A6969&amp;tr=udp%3A%2F%2Fexodus.desync.com%3A6969","seeders":3,"leechers":0,"uploader":"rinoceros","files":-1,"time":1398974457,"description":"Conspiracy.2001.720p.BRRip.x264.Hun.Eng\n\nGeneral\nUnique ID                                : 181283233863114770959216499767846783030 (0x8861E17F77650BB88D05754203524836)\nComplete name                            : F:Conspiracy.2001.720p.BRRip.x264.Hun.EngConspiracy (2001) 720p.mkv\nFormat                                   : Matroska\nFormat version                           : Version 4 / Version 2\nFile size                                : 3.02 GiB\nDuration                                 : 1h 31mn\nOverall bit rate                         : 4 712 Kbps\nEncoded date                             : UTC 2014-05-01 17:37:08\nWriting application                      : mkvmerge v6.9.1 ('Blue Panther') 64bit built on Apr 18 2014 18:23:38\nWriting library                          : libebml v1.3.0 + libmatroska v1.4.1\n\nVideo\nID                                       : 1\nFormat                                   : AVC\nFormat/Info                              : Advanced Video Codec\nFormat profile                           : &lt;a class=&quot;__cf_email__&quot; href=&quot;/cdn-cgi/l/email-protection&quot; data-cfemail=&quot;074f6e606f474b332936&quot;&gt;[email&amp;#160;protected]&lt;/a&gt;&lt;script cf-hash='f9e31' type=&quot;text/javascript&quot;&gt;\n/* &lt;![CDATA[ */!function(){try{var t=&quot;currentScript&quot;in document?document.currentScript:function(){for(var t=document.getElementsByTagName(&quot;script&quot;),e=t.length;e--;)if(t[e].getAttribute(&quot;cf-hash&quot;))return t[e]}();if(t&amp;&amp;t.previousSibling){var e,r,n,i,c=t.previousSibling,a=c.getAttribute(&quot;data-cfemail&quot;);if(a){for(e=&quot;&quot;,r=parseInt(a.substr(0,2),16),n=2;a.length-n;n+=2)i=parseInt(a.substr(n,2),16)^r,e+=String.fromCharCode(i);e=document.createTextNode(e),c.parentNode.replaceChild(e,c)}}}catch(u){}}();/* ]]&gt; */&lt;/script&gt;\nFormat settings, CABAC                   : Yes\nFormat settings, ReFrames                : 9 frames\nCodec ID                                 : V_MPEG4/ISO/AVC\nDuration                                 : 1h 31mn\nBit rate                                 : 4 043 Kbps\nWidth                                    : 1 280 pixels\nHeight                                   : 718 pixels\nDisplay aspect ratio                     : 16:9\nFrame rate mode                          : Constant\nFrame rate                               : 25.000 fps\nColor space                              : YUV\nChroma subsampling                       : 4:2:0\nBit depth                                : 8 bits\nScan type                                : Progressive\nBits/(Pixel*Frame)                       : 0.176\nStream size                              : 2.59 GiB (86%)\nTitle                                    : Conspiracy (2001) 720p\nWriting library                          : x264 core 128 r2216 198a7ea\nEncoding settings                        : cabac=1 / ref=9 / deblock=1:-3:-3 / analyse=0x3:0x133 / me=tesa / subme=10 / psy=1 / psy_rd=1.10:0.00 / mixed_ref=1 / me_range=24 / chroma_me=1 / trellis=2 / 8x8dct=1 / cqm=0 / deadzone=21,11 / fast_pskip=0 / chroma_qp_offset=-2 / threads=12 / lookahead_threads=2 / sliced_threads=0 / nr=0 / decimate=0 / interlaced=0 / bluray_compat=0 / constrained_intra=0 / bframes=6 / b_pyramid=2 / b_adapt=2 / b_bias=0 / direct=3 / weightb=1 / open_gop=0 / weightp=2 / keyint=250 / keyint_min=25 / scenecut=40 / intra_refresh=0 / rc_lookahead=60 / rc=crf / mbtree=1 / crf=17.5 / qcomp=0.75 / qpmin=0 / qpmax=69 / qpstep=4 / vbv_maxrate=50000 / vbv_bufsize=62500 / crf_max=0.0 / nal_hrd=none / ip_ratio=1.40 / aq=1:0.80\nDefault                                  : Yes\nForced                                   : No\n\nAudio #1\nID                                       : 2\nFormat                                   : AC-3\nFormat/Info                              : Audio Coding 3\nMode extension                           : CM (complete main)\nFormat settings, Endianness              : Big\nCodec ID                                 : A_AC3\nDuration                                 : 1h 31mn\nBit rate mode                            : Constant\nBit rate                                 : 192 Kbps\nChannel(s)                               : 2 channels\nChannel positions                        : Front: L R\nSampling rate                            : 48.0 KHz\nBit depth                                : 16 bits\nCompression mode                         : Lossy\nStream size                              : 126 MiB (4%)\nTitle                                    : 2.0\nLanguage                                 : Hungarian\nDefault                                  : Yes\nForced                                   : No\n\nAudio #2\nID                                       : 3\nFormat                                   : AC-3\nFormat/Info                              : Audio Coding 3\nMode extension                           : CM (complete main)\nFormat settings, Endianness              : Big\nCodec ID                                 : A_AC3\nDuration                                 : 1h 31mn\nBit rate mode                            : Constant\nBit rate                                 : 384 Kbps\nChannel(s)                               : 2 channels\nChannel positions                        : Front: L R\nSampling rate                            : 48.0 KHz\nBit depth                                : 16 bits\nCompression mode                         : Lossy\nStream size                              : 252 MiB (8%)\nTitle                                    : 2.0\nLanguage                                 : English\nDefault                                  : No\nForced                                   : No\n\nText #1\nID                                       : 4\nFormat                                   : UTF-8\nCodec ID                                 : S_TEXT/UTF8\nCodec ID/Info                            : UTF-8 Plain Text\nTitle                                    : full\nLanguage                                 : Hungarian\nDefault                                  : No\nForced                                   : No\n\nText #2\nID                                       : 5\nFormat                                   : UTF-8\nCodec ID                                 : S_TEXT/UTF8\nCodec ID/Info                            : UTF-8 Plain Text\nTitle                                    : full\nLanguage                                 : English\nDefault                                  : No\nForced                                   : No\n &lt;a href=&quot;\nhttp://www.port.hu/az_osszeeskuves_conspiracy/pls/fi/films.film_page?i_where=2&amp;i_film_id=56051&amp;i_city_id=-1&amp;i_county_id=-1&amp;i_topic_id=2&quot; rel=&quot;nofollow&quot; target=&quot;_NEW&quot;&gt;\nhttp://www.port.hu/az_osszeeskuves_conspiracy/pls/fi/films.film_page?i_where=2&amp;i_film_id=56051&amp;i_city_id=-1&amp;i_county_id=-1&amp;i_topic_id=2&lt;/a&gt;","torrent":{"xt":"urn:btih:38848880d142fdefe3478d524df252baf6907863","amp;dn":"Conspiracy.2001.720p.BRRip.x264.Hun.Eng","amp;tr":["udp%3A%2F%2Ftracker.openbittorrent.com%3A80","udp%3A%2F%2Fopen.demonii.com%3A1337","udp%3A%2F%2Ftracker.coppersurfer.tk%3A6969","udp%3A%2F%2Fexodus.desync.com%3A6969"],"infoHash":"38848880d142fdefe3478d524df252baf6907863","infoHashBuffer":{"type":"Buffer","data":[56,132,136,128,209,66,253,239,227,71,141,82,77,242,82,186,246,144,120,99]},"announce":[],"urlList":[]}}